<svg id="icons" enable-background="new 0 0 64 64" height="512" viewBox="0 0 64 64" width="512" xmlns="http://www.w3.org/2000/svg"><path d="m1.502 64h39.996c.553 0 1-.447 1-1v-2.002h2.002c.553 0 1-.447 1-1v-52.998c0-.133-.027-.264-.077-.385-.051-.122-.125-.231-.217-.323l-5.998-5.999c-.092-.092-.201-.166-.323-.216-.12-.05-.251-.077-.385-.077h-33.996c-.553 0-1 .448-1 1v2.002h-2.002c-.553 0-1 .448-1 1v58.998c0 .553.447 1 1 1zm37.998-60.586 2.586 2.586h-2.586zm-33.996-1.414h31.996v5c0 .552.447 1 1 1h5v50.998h-37.996zm-3.002 3.002h1.002v54.996c0 .553.447 1 1 1h35.994v1.002h-37.996z"/><path d="m18.502 35.004c0-.553-.447-1-1-1-1.654 0-3-1.347-3-3.002v-4.002c0-.771-.301-1.468-.78-2 .479-.532.78-1.229.78-2v-4c0-1.654 1.346-3 3-3 .553 0 1-.448 1-1s-.447-1-1-1c-2.757 0-5 2.243-5 5v4c0 .551-.448 1-1 1-.553 0-1 .448-1 1s.447 1 1 1c.552 0 1 .449 1 1v4.002c0 2.758 2.243 5.002 5 5.002.553 0 1-.447 1-1z"/><path d="m37.502 24c-.552 0-1-.449-1-1v-4c0-2.757-2.243-5-5-5-.553 0-1 .448-1 1s.447 1 1 1c1.654 0 3 1.346 3 3v4c0 .771.301 1.468.78 2-.479.532-.78 1.229-.78 2v4.002c0 1.655-1.346 3.002-3 3.002-.553 0-1 .447-1 1s.447 1 1 1c2.757 0 5-2.244 5-5.002v-4.002c0-.551.448-1 1-1 .553 0 1-.448 1-1s-.447-1-1-1z"/><path d="m20.528 24h-.011c-.552 0-.994.448-.994 1s.452 1 1.005 1c.552 0 1-.448 1-1s-.448-1-1-1z"/><path d="m24.532 26c.552 0 1-.448 1-1s-.448-1-1-1h-.011c-.552 0-.994.448-.994 1s.452 1 1.005 1z"/><path d="m29.534 25c0-.552-.448-1-1-1h-.011c-.552 0-.994.448-.994 1s.452 1 1.005 1c.552 0 1-.448 1-1z"/><path d="m19.502 47.004c-.553 0-1 .447-1 1 0 .552-.448 1-1 1s-1-.448-1-1v-4c0-.552.448-1 1-1 .551 0 .998.448.998 1 0 .553.447 1 1 1s1-.447 1-1c0-1.654-1.345-3-2.998-3-1.654 0-3 1.346-3 3v4c0 1.654 1.346 3 3 3s3-1.346 3-3c0-.553-.447-1-1-1z"/><path d="m31.502 43.004c.551 0 .998.448.998 1 0 .553.447 1 1 1s1-.447 1-1c0-1.654-1.345-3-2.998-3-1.654 0-3 1.346-3 3 0 1.617 1.474 2.355 2.55 2.895.846.423 1.444.751 1.444 1.105 0 .552-.448 1-1 1s-1-.448-1-1c0-.553-.447-1-1-1s-1 .447-1 1c0 1.654 1.346 3 3 3s3-1.346 3-3c0-1.617-1.474-2.355-2.55-2.895-.846-.423-1.444-.751-1.444-1.105 0-.552.448-1 1-1z"/><path d="m24.495 43.004c.551 0 .998.448.998 1 0 .553.447 1 1 1s1-.447 1-1c0-1.654-1.345-3-2.998-3-1.654 0-3 1.346-3 3 0 1.617 1.474 2.355 2.55 2.895.846.423 1.444.751 1.444 1.105 0 .552-.448 1-1 1s-1-.448-1-1c0-.553-.447-1-1-1s-1 .447-1 1c0 1.654 1.346 3 3 3s3-1.346 3-3c0-1.617-1.474-2.355-2.55-2.895-.846-.423-1.444-.751-1.444-1.105 0-.552.448-1 1-1z"/><path d="m48.5 46.749v4.274c0 .553.447 1 1 1s1-.447 1-1v-3.998h1v.994c0 .553.447 1 1 1s1-.447 1-1v-.994h1v8.002c0 .553.447 1 1 1s1-.447 1-1v-8.002h1v1.996c0 .553.447 1 1 1s1-.447 1-1v-1.996h1v3.998c0 .553.447 1 1 1s1-.447 1-1v-4.277c.594-.348.998-.984.998-1.721v-12.005c0-2.199-1.784-3.987-3.98-3.998-.007 0-.013-.004-.02-.004h-1v-18s0 0 0-.001 0 0 0-.001c0-1.654-1.346-3-3-3s-3 1.346-3 3v.001s0 0 0 .001v18h-1c-2.207 0-4.002 1.795-4.002 4.002v12.006c0 .738.407 1.376 1.004 1.723zm.996-1.724v-1h12.002v1zm12.002-3h-12.002v-6.021h12.002zm-7-31.008c0-.001 0-.001 0 0 0-.552.448-1.001 1-1.001s1 .449 1 1v.001s0 0 0 .001v18h-2zm-3 20.001h7.99c.004 0 .006.002.01.002 1.103 0 2 .897 2 2v.984h-12.002v-.984c0-1.104.899-2.002 2.002-2.002z"/></svg>